<svg width="129" height="73" viewBox="0 0 129 73" fill="none" xmlns="http://www.w3.org/2000/svg">
<g filter="url(#filter0_i_21_81)">
<path fill-rule="evenodd" clip-rule="evenodd" d="M1.56186 73L1.36551 51H14.5338L14.7302 61.5709H35.892C41.7225 61.5709 44.4414 60.6925 44.4414 54.7295C44.4414 53.3593 44.2915 52.1161 43.9918 51H58.2518C58.3869 51.9757 58.4545 53.0036 58.4545 54.0835C58.4545 68.0966 51.2468 73 36.4386 73H1.56186ZM53.8631 26.5C56.4586 23.4694 57.7564 21.2682 57.7564 16.8813C57.7564 5.84976 50.9983 0.333984 37.4822 0.333984H1.56186V26.5H14.7302V11.7631H36.6374C41.5403 11.7631 43.9918 13.7507 43.9918 17.7261C43.9918 22.1632 41.984 24.0828 37.9686 26.5H53.8631Z" fill="#D66140" fill-opacity="0.7"/>
<path fill-rule="evenodd" clip-rule="evenodd" d="M70.4346 73V51H83.8513V73H70.4346ZM83.8513 26.5H70.4346V0.433368L105.119 0.333984C119.629 0.333984 126.884 5.07102 126.884 17.759C126.884 20.8281 126.162 23.7087 124.716 26.4006H109.699C111.979 24.1477 113.12 21.3997 113.12 18.1565C113.12 12.9223 110.171 11.9122 104.275 11.9122L83.8513 12.0115V26.5ZM99.0232 50.9006L110.287 73H126.884L114.782 50.9006H99.0232Z" fill="#D66140" fill-opacity="0.7"/>
</g>
<path d="M1.33383 43.6857V30.9698H7.2916C9.71028 30.9698 10.9196 31.9569 10.9196 33.9309C10.9196 35.3774 10.1312 36.4119 8.5543 37.0343C10.2379 37.3485 11.0797 38.3118 11.0797 39.9243C11.0797 42.4319 9.75474 43.6857 7.10487 43.6857H1.33383ZM7.00705 41.6405C8.05041 41.6405 8.57208 41.1069 8.57208 40.0399C8.57208 38.7179 7.79253 38.0569 6.23343 38.0569H5.52206V36.5364C7.47834 36.2103 8.45648 35.3922 8.45648 34.0821C8.45648 33.3707 8.0178 33.015 7.14044 33.015H3.69026V41.6405H7.00705ZM12.4224 40.7779C12.4224 38.9224 13.774 37.9947 16.4772 37.9947C17.1116 37.9947 17.7459 38.054 18.3802 38.1725V37.47C18.3802 36.6342 17.7785 36.2162 16.5751 36.2162C15.5554 36.2162 14.4231 36.3644 13.1782 36.6608V34.7935C14.4231 34.4971 15.5554 34.3489 16.5751 34.3489C19.3494 34.3489 20.7366 35.3744 20.7366 37.4256V43.6857H19.3672L18.5313 42.8498C17.7192 43.4071 16.824 43.6857 15.8459 43.6857C13.5636 43.6857 12.4224 42.7164 12.4224 40.7779ZM18.3802 39.7731C17.7874 39.6546 17.1531 39.5953 16.4772 39.5953C15.345 39.5953 14.7788 39.9806 14.7788 40.7513C14.7788 41.5812 15.2531 41.9962 16.2016 41.9962C16.9841 41.9962 17.7103 41.7531 18.3802 41.267V39.7731ZM22.9241 34.3489H30.1268V36.2162L25.3517 41.9072H29.9489V43.6857H22.7462V41.9072L27.5925 36.2162H22.9241V34.3489ZM31.3272 40.7779C31.3272 38.9224 32.6788 37.9947 35.3821 37.9947C36.0164 37.9947 36.6507 38.054 37.285 38.1725V37.47C37.285 36.6342 36.6833 36.2162 35.4799 36.2162C34.4602 36.2162 33.328 36.3644 32.0831 36.6608V34.7935C33.328 34.4971 34.4602 34.3489 35.4799 34.3489C38.2542 34.3489 39.6414 35.3744 39.6414 37.4256V43.6857H38.272L37.4362 42.8498C36.624 43.4071 35.7289 43.6857 34.7507 43.6857C32.4684 43.6857 31.3272 42.7164 31.3272 40.7779ZM37.285 39.7731C36.6922 39.6546 36.0579 39.5953 35.3821 39.5953C34.2498 39.5953 33.6837 39.9806 33.6837 40.7513C33.6837 41.5812 34.1579 41.9962 35.1064 41.9962C35.8889 41.9962 36.6151 41.7531 37.285 41.267V39.7731ZM41.8734 43.6857V34.3489H43.6963L43.9897 35.5404C44.8078 34.7461 45.6733 34.3489 46.5862 34.3489V36.2518C45.7089 36.2518 44.9234 36.6164 44.2298 37.3455V43.6857H41.8734ZM52.1439 43.6679V30.9698H57.9238C60.5203 30.9698 61.8186 32.1051 61.8186 34.3755C61.8186 35.9109 60.8078 37.1825 58.7863 38.1903L62.8145 43.6857H59.8445L55.9764 38.1458V37.0699C58.2291 36.6846 59.3554 35.8102 59.3554 34.4467C59.3554 33.51 58.8278 33.0417 57.7726 33.0417H54.5448V43.6679H52.1439ZM67.6519 34.3489C70.4855 34.3489 71.9023 35.7953 71.9023 38.6883C71.9023 39.0736 71.8757 39.4589 71.8223 39.8443H65.6244C65.6244 41.1603 66.5907 41.8183 68.5233 41.8183C69.4659 41.8183 70.4084 41.7294 71.351 41.5516V43.4189C70.527 43.5968 69.5252 43.6857 68.3455 43.6857C64.9605 43.6857 63.268 42.094 63.268 38.9106C63.268 35.8694 64.7293 34.3489 67.6519 34.3489ZM65.6244 38.2081H69.6082V38.137C69.6082 36.8446 68.9561 36.1985 67.6519 36.1985C66.407 36.1985 65.7312 36.8683 65.6244 38.2081ZM79.6474 36.4652C79.2621 36.3229 78.7138 36.2518 78.0024 36.2518C76.3722 36.2518 75.557 37.1499 75.557 38.9461C75.557 40.6831 76.2595 41.5516 77.6645 41.5516C78.3403 41.5516 79.0013 41.3915 79.6474 41.0714V36.4652ZM82.0039 42.9743C82.0039 45.7012 80.3648 47.0647 77.0865 47.0647C75.9364 47.0647 74.9168 46.9165 74.0276 46.6201V44.7527C74.9346 45.0492 75.9601 45.1974 77.1043 45.1974C78.7997 45.1974 79.6474 44.486 79.6474 43.0632C78.9479 43.3596 78.1951 43.5078 77.3888 43.5078C74.6145 43.5078 73.2273 41.9932 73.2273 38.9639C73.2273 35.8872 74.8427 34.3489 78.0735 34.3489C79.1584 34.3489 80.4685 34.4763 82.0039 34.7312V42.9743ZM83.7912 40.7779C83.7912 38.9224 85.1428 37.9947 87.8461 37.9947C88.4804 37.9947 89.1147 38.054 89.749 38.1725V37.47C89.749 36.6342 89.1473 36.2162 87.9439 36.2162C86.9242 36.2162 85.792 36.3644 84.5471 36.6608V34.7935C85.792 34.4971 86.9242 34.3489 87.9439 34.3489C90.7182 34.3489 92.1054 35.3744 92.1054 37.4256V43.6857H90.736L89.9002 42.8498C89.088 43.4071 88.1929 43.6857 87.2147 43.6857C84.9324 43.6857 83.7912 42.7164 83.7912 40.7779ZM89.749 39.7731C89.1562 39.6546 88.5219 39.5953 87.8461 39.5953C86.7138 39.5953 86.1476 39.9806 86.1476 40.7513C86.1476 41.5812 86.6219 41.9962 87.5704 41.9962C88.3529 41.9962 89.0791 41.7531 89.749 41.267V39.7731ZM96.6938 30.9698V43.6857H94.3374V30.9698H96.6938ZM102.865 34.3489C105.699 34.3489 107.115 35.7953 107.115 38.6883C107.115 39.0736 107.089 39.4589 107.035 39.8443H100.838C100.838 41.1603 101.804 41.8183 103.736 41.8183C104.679 41.8183 105.622 41.7294 106.564 41.5516V43.4189C105.74 43.5968 104.738 43.6857 103.559 43.6857C100.174 43.6857 98.4811 42.094 98.4811 38.9106C98.4811 35.8694 99.9424 34.3489 102.865 34.3489ZM100.838 38.2081H104.821V38.137C104.821 36.8446 104.169 36.1985 102.865 36.1985C101.62 36.1985 100.944 36.8683 100.838 38.2081ZM108.885 43.6857V34.3489H110.708L111.001 35.5404C111.819 34.7461 112.685 34.3489 113.598 34.3489V36.2518C112.721 36.2518 111.935 36.6164 111.241 37.3455V43.6857H108.885ZM117.288 34.3489V43.6857H114.932V34.3489H117.288ZM116.017 30.9698H118.853L116.728 33.2729H114.736L116.017 30.9698ZM119.075 40.7779C119.075 38.9224 120.427 37.9947 123.13 37.9947C123.765 37.9947 124.399 38.054 125.033 38.1725V37.47C125.033 36.6342 124.432 36.2162 123.228 36.2162C122.208 36.2162 121.076 36.3644 119.831 36.6608V34.7935C121.076 34.4971 122.208 34.3489 123.228 34.3489C126.002 34.3489 127.39 35.3744 127.39 37.4256V43.6857H126.02L125.184 42.8498C124.372 43.4071 123.477 43.6857 122.499 43.6857C120.217 43.6857 119.075 42.7164 119.075 40.7779ZM125.033 39.7731C124.44 39.6546 123.806 39.5953 123.13 39.5953C121.998 39.5953 121.432 39.9806 121.432 40.7513C121.432 41.5812 121.906 41.9962 122.855 41.9962C123.637 41.9962 124.363 41.7531 125.033 41.267V39.7731Z" fill="#D66140"/>
<defs>
<filter id="filter0_i_21_81" x="1.36548" y="0.333984" width="125.519" height="76.666" filterUnits="userSpaceOnUse" color-interpolation-filters="sRGB">
<feFlood flood-opacity="0" result="BackgroundImageFix"/>
<feBlend mode="normal" in="SourceGraphic" in2="BackgroundImageFix" result="shape"/>
<feColorMatrix in="SourceAlpha" type="matrix" values="0 0 0 0 0 0 0 0 0 0 0 0 0 0 0 0 0 0 127 0" result="hardAlpha"/>
<feOffset dy="4"/>
<feGaussianBlur stdDeviation="2"/>
<feComposite in2="hardAlpha" operator="arithmetic" k2="-1" k3="1"/>
<feColorMatrix type="matrix" values="0 0 0 0 0 0 0 0 0 0 0 0 0 0 0 0 0 0 0.25 0"/>
<feBlend mode="normal" in2="shape" result="effect1_innerShadow_21_81"/>
</filter>
</defs>
</svg>
