<svg width="129" height="73" viewBox="0 0 129 73" fill="none" xmlns="http://www.w3.org/2000/svg">
<g filter="url(#filter0_i_211_2)">
<path fill-rule="evenodd" clip-rule="evenodd" d="M1.56186 72.666L1.36551 50.666H14.5338L14.7302 61.2369H35.892C41.7225 61.2369 44.4414 60.3585 44.4414 54.3955C44.4414 53.0253 44.2915 51.7821 43.9918 50.666H58.2518C58.3869 51.6417 58.4545 52.6696 58.4545 53.7495C58.4545 67.7626 51.2468 72.666 36.4386 72.666H1.56186ZM53.8631 26.166C56.4586 23.1354 57.7564 20.9342 57.7564 16.5473C57.7564 5.51578 50.9983 0 37.4822 0H1.56186V26.166H14.7302V11.4291H36.6374C41.5403 11.4291 43.9918 13.4168 43.9918 17.3921C43.9918 21.8292 41.984 23.7488 37.9686 26.166H53.8631Z" fill="#CECECE" fill-opacity="0.7"/>
<path fill-rule="evenodd" clip-rule="evenodd" d="M70.4346 72.666V50.666H83.8513V72.666H70.4346ZM83.8513 26.166H70.4346V0.0993834L105.119 0C119.629 0 126.884 4.73703 126.884 17.425C126.884 20.4941 126.162 23.3747 124.716 26.0666H109.699C111.979 23.8138 113.12 21.0658 113.12 17.8225C113.12 12.5883 110.171 11.5782 104.275 11.5782L83.8513 11.6776V26.166ZM99.0232 50.5666L110.287 72.666H126.884L114.782 50.5666H99.0232Z" fill="#CECECE" fill-opacity="0.7"/>
</g>
<path d="M1.33383 43.3517V30.6358H7.2916C9.71028 30.6358 10.9196 31.6229 10.9196 33.5969C10.9196 35.0434 10.1312 36.0779 8.5543 36.7003C10.2379 37.0145 11.0797 37.9778 11.0797 39.5903C11.0797 42.0979 9.75474 43.3517 7.10487 43.3517H1.33383ZM7.00705 41.3065C8.05041 41.3065 8.57208 40.7729 8.57208 39.7059C8.57208 38.3839 7.79253 37.7229 6.23343 37.7229H5.52206V36.2024C7.47834 35.8763 8.45648 35.0582 8.45648 33.7481C8.45648 33.0367 8.0178 32.681 7.14044 32.681H3.69026V41.3065H7.00705ZM12.4224 40.4439C12.4224 38.5884 13.774 37.6607 16.4772 37.6607C17.1116 37.6607 17.7459 37.72 18.3802 37.8385V37.136C18.3802 36.3002 17.7785 35.8822 16.5751 35.8822C15.5554 35.8822 14.4231 36.0304 13.1782 36.3268V34.4595C14.4231 34.1631 15.5554 34.0149 16.5751 34.0149C19.3494 34.0149 20.7366 35.0404 20.7366 37.0916V43.3517H19.3672L18.5313 42.5158C17.7192 43.0731 16.824 43.3517 15.8459 43.3517C13.5636 43.3517 12.4224 42.3824 12.4224 40.4439ZM18.3802 39.4391C17.7874 39.3206 17.1531 39.2613 16.4772 39.2613C15.345 39.2613 14.7788 39.6466 14.7788 40.4173C14.7788 41.2472 15.2531 41.6622 16.2016 41.6622C16.9841 41.6622 17.7103 41.4191 18.3802 40.933V39.4391ZM22.9241 34.0149H30.1268V35.8822L25.3517 41.5732H29.9489V43.3517H22.7462V41.5732L27.5925 35.8822H22.9241V34.0149ZM31.3272 40.4439C31.3272 38.5884 32.6788 37.6607 35.3821 37.6607C36.0164 37.6607 36.6507 37.72 37.285 37.8385V37.136C37.285 36.3002 36.6833 35.8822 35.4799 35.8822C34.4602 35.8822 33.328 36.0304 32.0831 36.3268V34.4595C33.328 34.1631 34.4602 34.0149 35.4799 34.0149C38.2542 34.0149 39.6414 35.0404 39.6414 37.0916V43.3517H38.272L37.4362 42.5158C36.624 43.0731 35.7289 43.3517 34.7507 43.3517C32.4684 43.3517 31.3272 42.3824 31.3272 40.4439ZM37.285 39.4391C36.6922 39.3206 36.0579 39.2613 35.3821 39.2613C34.2498 39.2613 33.6837 39.6466 33.6837 40.4173C33.6837 41.2472 34.1579 41.6622 35.1064 41.6622C35.8889 41.6622 36.6151 41.4191 37.285 40.933V39.4391ZM41.8734 43.3517V34.0149H43.6963L43.9897 35.2064C44.8078 34.4121 45.6733 34.0149 46.5862 34.0149V35.9178C45.7089 35.9178 44.9234 36.2824 44.2298 37.0115V43.3517H41.8734ZM52.1439 43.3339V30.6358H57.9238C60.5203 30.6358 61.8186 31.7711 61.8186 34.0416C61.8186 35.5769 60.8078 36.8485 58.7863 37.8563L62.8145 43.3517H59.8445L55.9764 37.8118V36.7359C58.2291 36.3506 59.3554 35.4762 59.3554 34.1127C59.3554 33.176 58.8278 32.7077 57.7726 32.7077H54.5448V43.3339H52.1439ZM67.6519 34.0149C70.4855 34.0149 71.9023 35.4613 71.9023 38.3543C71.9023 38.7396 71.8757 39.1249 71.8223 39.5103H65.6244C65.6244 40.8263 66.5907 41.4843 68.5233 41.4843C69.4659 41.4843 70.4084 41.3954 71.351 41.2176V43.0849C70.527 43.2628 69.5252 43.3517 68.3455 43.3517C64.9605 43.3517 63.268 41.76 63.268 38.5766C63.268 35.5354 64.7293 34.0149 67.6519 34.0149ZM65.6244 37.8741H69.6082V37.803C69.6082 36.5106 68.9561 35.8645 67.6519 35.8645C66.407 35.8645 65.7312 36.5343 65.6244 37.8741ZM79.6474 36.1312C79.2621 35.9889 78.7138 35.9178 78.0024 35.9178C76.3722 35.9178 75.557 36.8159 75.557 38.6121C75.557 40.3491 76.2595 41.2176 77.6645 41.2176C78.3403 41.2176 79.0013 41.0575 79.6474 40.7374V36.1312ZM82.0039 42.6403C82.0039 45.3673 80.3648 46.7307 77.0865 46.7307C75.9364 46.7307 74.9168 46.5825 74.0276 46.2861V44.4187C74.9346 44.7152 75.9601 44.8634 77.1043 44.8634C78.7997 44.8634 79.6474 44.152 79.6474 42.7292C78.9479 43.0256 78.1951 43.1738 77.3888 43.1738C74.6145 43.1738 73.2273 41.6592 73.2273 38.6299C73.2273 35.5532 74.8427 34.0149 78.0735 34.0149C79.1584 34.0149 80.4685 34.1423 82.0039 34.3972V42.6403ZM83.7912 40.4439C83.7912 38.5884 85.1428 37.6607 87.8461 37.6607C88.4804 37.6607 89.1147 37.72 89.749 37.8385V37.136C89.749 36.3002 89.1473 35.8822 87.9439 35.8822C86.9242 35.8822 85.792 36.0304 84.5471 36.3268V34.4595C85.792 34.1631 86.9242 34.0149 87.9439 34.0149C90.7182 34.0149 92.1054 35.0404 92.1054 37.0916V43.3517H90.736L89.9002 42.5158C89.088 43.0731 88.1929 43.3517 87.2147 43.3517C84.9324 43.3517 83.7912 42.3824 83.7912 40.4439ZM89.749 39.4391C89.1562 39.3206 88.5219 39.2613 87.8461 39.2613C86.7138 39.2613 86.1476 39.6466 86.1476 40.4173C86.1476 41.2472 86.6219 41.6622 87.5704 41.6622C88.3529 41.6622 89.0791 41.4191 89.749 40.933V39.4391ZM96.6938 30.6358V43.3517H94.3374V30.6358H96.6938ZM102.865 34.0149C105.699 34.0149 107.115 35.4613 107.115 38.3543C107.115 38.7396 107.089 39.1249 107.035 39.5103H100.838C100.838 40.8263 101.804 41.4843 103.736 41.4843C104.679 41.4843 105.622 41.3954 106.564 41.2176V43.0849C105.74 43.2628 104.738 43.3517 103.559 43.3517C100.174 43.3517 98.4811 41.76 98.4811 38.5766C98.4811 35.5354 99.9424 34.0149 102.865 34.0149ZM100.838 37.8741H104.821V37.803C104.821 36.5106 104.169 35.8645 102.865 35.8645C101.62 35.8645 100.944 36.5343 100.838 37.8741ZM108.885 43.3517V34.0149H110.708L111.001 35.2064C111.819 34.4121 112.685 34.0149 113.598 34.0149V35.9178C112.721 35.9178 111.935 36.2824 111.241 37.0115V43.3517H108.885ZM117.288 34.0149V43.3517H114.932V34.0149H117.288ZM116.017 30.6358H118.853L116.728 32.9389H114.736L116.017 30.6358ZM119.075 40.4439C119.075 38.5884 120.427 37.6607 123.13 37.6607C123.765 37.6607 124.399 37.72 125.033 37.8385V37.136C125.033 36.3002 124.432 35.8822 123.228 35.8822C122.208 35.8822 121.076 36.0304 119.831 36.3268V34.4595C121.076 34.1631 122.208 34.0149 123.228 34.0149C126.002 34.0149 127.39 35.0404 127.39 37.0916V43.3517H126.02L125.184 42.5158C124.372 43.0731 123.477 43.3517 122.499 43.3517C120.217 43.3517 119.075 42.3824 119.075 40.4439ZM125.033 39.4391C124.44 39.3206 123.806 39.2613 123.13 39.2613C121.998 39.2613 121.432 39.6466 121.432 40.4173C121.432 41.2472 121.906 41.6622 122.855 41.6622C123.637 41.6622 124.363 41.4191 125.033 40.933V39.4391Z" fill="white"/>
<defs>
<filter id="filter0_i_211_2" x="1.36548" y="0" width="125.519" height="76.666" filterUnits="userSpaceOnUse" color-interpolation-filters="sRGB">
<feFlood flood-opacity="0" result="BackgroundImageFix"/>
<feBlend mode="normal" in="SourceGraphic" in2="BackgroundImageFix" result="shape"/>
<feColorMatrix in="SourceAlpha" type="matrix" values="0 0 0 0 0 0 0 0 0 0 0 0 0 0 0 0 0 0 127 0" result="hardAlpha"/>
<feOffset dy="4"/>
<feGaussianBlur stdDeviation="2"/>
<feComposite in2="hardAlpha" operator="arithmetic" k2="-1" k3="1"/>
<feColorMatrix type="matrix" values="0 0 0 0 0 0 0 0 0 0 0 0 0 0 0 0 0 0 0.25 0"/>
<feBlend mode="normal" in2="shape" result="effect1_innerShadow_211_2"/>
</filter>
</defs>
</svg>
